<svg xmlns="http://www.w3.org/2000/svg" viewBox="0 0 60 38"><defs><style>.cls-1,.cls-2{isolation:isolate;}.cls-2{font-size:8px;fill:#18315c;font-family:HelveticaNeue-Bold, Helvetica Neue;font-weight:700;}.cls-3,.cls-4{fill:none;}.cls-4{stroke:#18315c;}</style></defs><title>logo</title><g id="圖層_2" data-name="圖層 2"><g id="圖層_1-2" data-name="圖層 1"><g id="Group_65" data-name="Group 65"><g id="Hello_:_I_m_Shoo" data-name="Hello : I m Shoo" class="cls-1"><text class="cls-2" transform="translate(16.82 17)">Hello :)</text><text class="cls-2" transform="translate(13.12 27)">I’m Shoo</text></g><g id="Rectangle_29" data-name="Rectangle 29"><path class="cls-3" d="M19,0H41A19,19,0,0,1,60,19h0A19,19,0,0,1,41,38H19A19,19,0,0,1,0,19H0A19,19,0,0,1,19,0Z"/><path class="cls-4" d="M19,.5H41A18.5,18.5,0,0,1,59.5,19h0A18.5,18.5,0,0,1,41,37.5H19A18.5,18.5,0,0,1,.5,19h0A18.5,18.5,0,0,1,19,.5Z"/></g></g></g></g></svg>