<svg xmlns="http://www.w3.org/2000/svg" viewBox="0 0 116.99 116.99"><defs><style>.cls-1{fill:#fff;}.cls-2,.cls-3,.cls-5,.cls-6{fill:none;stroke-linecap:round;stroke-width:3px;}.cls-2,.cls-5,.cls-6{stroke:#18315c;}.cls-2,.cls-3{stroke-miterlimit:4;}.cls-3{stroke:#19325d;}.cls-4{fill:#18315c;}</style></defs><title>資產 6</title><g id="圖層_2" data-name="圖層 2"><g id="圖層_1-2" data-name="圖層 1"><g id="Group_205" data-name="Group 205"><circle class="cls-1" cx="58.49" cy="58.49" r="58.49"/><g id="Group_2" data-name="Group 2"><path id="Path_1" data-name="Path 1" class="cls-2" d="M95.59,95.71S106.23,10.77,52.09,14,22.66,98.13,22.66,98.13"/><path id="Path_2" data-name="Path 2" class="cls-2" d="M74.67,42.52s-28.49,2.54-30.25-.08S42,34.75,42,34.75s.81,5.37-.1,7.47-7.41,2.93-7.41,2.93"/><path id="Path_3" data-name="Path 3" class="cls-3" d="M84,54.52s8.89,10.24,1.59,17.74-36.83,8.5-48.06,3.86S27.7,57.68,29.67,54.7"/><g id="Ellipse_3" data-name="Ellipse 3"><ellipse class="cls-4" cx="73.01" cy="55.85" rx="1.01" ry="3.03" transform="translate(11.02 123.72) rotate(-85.01)"/><ellipse class="cls-2" cx="73.01" cy="55.85" rx="0.51" ry="2.53" transform="translate(11.02 123.72) rotate(-85.01)"/></g><g id="Ellipse_4" data-name="Ellipse 4"><ellipse class="cls-4" cx="54.29" cy="56.8" rx="3.07" ry="1.13" transform="translate(-9.84 11.4) rotate(-11)"/><ellipse class="cls-5" cx="54.29" cy="56.8" rx="2.57" ry="0.63" transform="translate(-9.84 11.4) rotate(-11)"/></g><path id="Path_5" data-name="Path 5" class="cls-6" d="M68.79,61.61c-2.9,2.52-5.7,1.7-7.36-.21"/><path id="Path_6" data-name="Path 6" class="cls-3" d="M91.86,86.48c.41-.3,4.91-3.39,3.77-5s-5.07,3-5.07,3,3.75-5.45,2-6.42-5.08,5.24-5.08,5.24-5.36,1-5.26,4.9,5.73,6.44,7.6,4.32S91.45,86.77,91.86,86.48Z"/><path id="Path_8" data-name="Path 8" class="cls-2" d="M38.5,85.1c-5.78,13.11-2.78,19.32-2.78,19.32"/><path id="Path_9" data-name="Path 9" class="cls-2" d="M78.37,103.71s-3.07-13.43-4.7-16.22"/></g></g></g></g></svg>