<svg xmlns="http://www.w3.org/2000/svg" viewBox="0 0 176 193.96"><defs><style>.cls-1{fill:#fff;}.cls-2,.cls-3,.cls-5,.cls-6{fill:none;}.cls-2,.cls-5,.cls-6,.cls-7{stroke:#18315c;}.cls-2,.cls-3,.cls-5,.cls-6,.cls-7{stroke-linecap:round;}.cls-2,.cls-3,.cls-7{stroke-miterlimit:4;stroke-width:3.5px;}.cls-3{stroke:#19325d;}.cls-4{fill:#18315c;}.cls-5{stroke-width:3.5px;}.cls-6{stroke-width:3.5px;}.cls-7,.cls-8{fill:#cad1de;}</style></defs><title>works</title><g id="圖層_2" data-name="圖層 2"><g id="圖層_1-2" data-name="圖層 1"><g id="Group_134" data-name="Group 134"><circle id="Ellipse_5" data-name="Ellipse 5" class="cls-1" cx="88" cy="105.96" r="88"/><g id="Group_2" data-name="Group 2"><path id="Path_1" data-name="Path 1" class="cls-2" d="M18.7,153.7S-.81-4.1,98.49,1.92s54,156.28,54,156.28"/><path id="Path_2" data-name="Path 2" class="cls-2" d="M45.64,56.91s66.75,6,70.87-.18,5.65-18,5.65-18-1.88,12.59.25,17.51,17.34,6.87,17.34,6.87"/><path id="Path_3" data-name="Path 3" class="cls-3" d="M45.31,69.76s-14.49,24-2.59,41.56,60,19.92,78.34,9.05,16-43.21,12.77-50.18"/><g id="Ellipse_3" data-name="Ellipse 3"><ellipse class="cls-4" cx="60.71" cy="79.73" rx="7.1" ry="2.37" transform="translate(-6.71 5.59) rotate(-4.99)"/><ellipse class="cls-2" cx="60.71" cy="79.73" rx="5.35" ry="0.62" transform="translate(-6.71 5.59) rotate(-4.99)"/></g><g id="Ellipse_4" data-name="Ellipse 4"><ellipse class="cls-4" cx="94.32" cy="81.49" rx="2.65" ry="7.2" transform="translate(-3.68 158.53) rotate(-79)"/><ellipse class="cls-5" cx="94.32" cy="81.49" rx="0.9" ry="5.45" transform="translate(-3.68 158.53) rotate(-79)"/></g><path id="Path_5" data-name="Path 5" class="cls-6" d="M66.27,90.16c6.8,5.9,13.36,4,17.26-.5"/><path id="Path_7" data-name="Path 7" class="cls-3" d="M45.39,130.44c-1.27,1-3,6.76-2.43,7.64,1.29,2,8.72-3.61,8.72-3.61"/><path id="Path_8" data-name="Path 8" class="cls-2" d="M121.86,124.67c13.54,30.7,6.51,45.25,6.51,45.25"/><path id="Path_9" data-name="Path 9" class="cls-2" d="M49.94,168.26s7.19-31.47,11-38"/></g></g><rect class="cls-7" x="29.68" y="103.71" width="114.7" height="87.17" rx="5.64"/><path class="cls-4" d="M35.31,103.71H138.74a5.64,5.64,0,0,1,5.64,5.64v6.76a0,0,0,0,1,0,0H29.68a0,0,0,0,1,0,0v-6.76A5.64,5.64,0,0,1,35.31,103.71Z"/><circle class="cls-8" cx="39.89" cy="110.64" r="2.28"/><circle class="cls-8" cx="46.87" cy="110.64" r="2.28"/><circle class="cls-8" cx="53.85" cy="110.64" r="2.28"/></g></g></svg>