<svg xmlns="http://www.w3.org/2000/svg" viewBox="0 0 176 194.11"><defs><style>.cls-1{fill:#fff;}.cls-2,.cls-3,.cls-5,.cls-6{fill:none;stroke-linecap:round;}.cls-2,.cls-5,.cls-6{stroke:#18315c;}.cls-2,.cls-3{stroke-miterlimit:4;stroke-width:3.5px;}.cls-3{stroke:#19325d;}.cls-4{fill:#18315c;}.cls-5{stroke-width:3.5px;}.cls-6{stroke-width:3.5px;}.cls-7{fill:#cad1de;}</style></defs><title>study_2</title><g id="圖層_2" data-name="圖層 2"><g id="圖層_1-2" data-name="圖層 1"><g id="Group_134" data-name="Group 134"><circle id="Ellipse_5" data-name="Ellipse 5" class="cls-1" cx="88" cy="105.96" r="88"/><g id="Group_2" data-name="Group 2"><path id="Path_1" data-name="Path 1" class="cls-2" d="M18.7,153.7S-.81-4.1,98.49,1.92s54,156.28,54,156.28"/><path id="Path_2" data-name="Path 2" class="cls-2" d="M45.64,56.91s66.75,6,70.87-.18,5.65-18,5.65-18-1.88,12.59.25,17.51,17.34,6.87,17.34,6.87"/><path id="Path_3" data-name="Path 3" class="cls-3" d="M45.31,69.76s-14.49,24-2.59,41.56,60,19.92,78.34,9.05,16-43.21,12.77-50.18"/><g id="Ellipse_3" data-name="Ellipse 3"><ellipse class="cls-4" cx="60.71" cy="79.73" rx="7.1" ry="2.37" transform="translate(-6.71 5.59) rotate(-4.99)"/><ellipse class="cls-2" cx="60.71" cy="79.73" rx="5.35" ry="0.62" transform="translate(-6.71 5.59) rotate(-4.99)"/></g><g id="Ellipse_4" data-name="Ellipse 4"><ellipse class="cls-4" cx="94.32" cy="81.49" rx="2.65" ry="7.2" transform="translate(-3.68 158.53) rotate(-79)"/><ellipse class="cls-5" cx="94.32" cy="81.49" rx="0.9" ry="5.45" transform="translate(-3.68 158.53) rotate(-79)"/></g><path id="Path_5" data-name="Path 5" class="cls-6" d="M66.27,90.16c6.8,5.9,13.36,4,17.26-.5"/><path id="Path_6" data-name="Path 6" class="cls-3" d="M31,127.89c-1-.69-11.52-7.92-8.83-11.71S34,123.28,34,123.28s-8.79-12.78-4.77-15,11.9,12.29,11.9,12.29S53.72,122.8,53.48,132s-13.42,15.07-17.8,10.1S32,128.58,31,127.89Z"/><path id="Path_7" data-name="Path 7" class="cls-3" d="M45.39,130.44c-1.27,1-3,6.76-2.43,7.64,1.29,2,8.72-3.61,8.72-3.61"/><path id="Path_8" data-name="Path 8" class="cls-2" d="M121.86,124.67c13.54,30.7,6.51,45.25,6.51,45.25"/><path id="Path_9" data-name="Path 9" class="cls-2" d="M49.94,168.26s7.19-31.47,11-38"/></g></g><path class="cls-1" d="M77.5,107.15l-2.22,3.37c-6.53-1-34.34-7.55-48.68-11a10.07,10.07,0,0,1,5.95-2.26C39.7,96.66,71.11,103.73,77.5,107.15Z"/><path class="cls-1" d="M123.24,101c-15.93,3.7-35.54,8-43.61,9.29l1.51-2.3.13-.2c2.43-2.5,30.35-8,34.67-8A39.27,39.27,0,0,1,123.24,101Z"/><path class="cls-7" d="M15.18,106.46,13.49,174.3a6,6,0,0,0,4.63,5.59L70,192.2a5.77,5.77,0,0,0,2.74,0l57.39-16.5a6,6,0,0,0,4.65-5.85l3.13-62.93a6,6,0,0,0-7.4-5.85S81.47,112.7,76.16,112.38s-53.56-12-53.56-12A6,6,0,0,0,15.18,106.46Z"/><path class="cls-4" d="M130.06,102.75c-.73-.21-1.81-.51-3.07-.84h0l-2.36.55-1.63.38-1.35.31-1.39.32-2,.46-1.77.41-1,.22-1.53.34-1.87.43-2.64.6-1.24.27-1.47.33-3.65.81-1.82.4-1.42.31-.92.19-1.29.28-1.79.38-.95.2-2,.43-2.2.46-1.6.32-1.54.31c-2.32.46-4.41.85-6.17,1.14l-1.12.18c-.36.07-.7.12-1,.16h0l-.6.08-.26,0h-.08a.76.76,0,0,1-.21,0l-.17,0a11.2,11.2,0,0,1-1.73.1,9,9,0,0,1-1-.12l-.43-.06-.28,0a.78.78,0,0,0,0,.16v.18l-.06,1.42c.75.12,1.33.2,1.71.22h.1a13.16,13.16,0,0,0,1.68-.1c9.83-1.09,47.77-10,53-11.23A1.78,1.78,0,0,1,130.06,102.75Zm6.69-1.92a7.7,7.7,0,0,0-6.13-1.55,4,4,0,0,0-.48.09l-6.9,1.62c-15.93,3.7-35.54,8-43.61,9.29a21,21,0,0,1-3.37.36h0l-1-.12c-6.53-1-34.34-7.55-48.68-11L23,98.64l-.26-.06a7.77,7.77,0,0,0-9.32,7.89l-.89,35.9-.8,31.89v.12a7.79,7.79,0,0,0,6,7.21l51.91,12.32a7.8,7.8,0,0,0,1.74.2,8.81,8.81,0,0,0,1.68-.18l.09,0,.11,0,57.31-16.48a7.72,7.72,0,0,0,6-7.48l1.37-27.56,1.76-35.45A7.72,7.72,0,0,0,136.75,100.83Zm-3.69,69a4.29,4.29,0,0,1-3.38,4.18L74.62,189.85l-2.25.65a4,4,0,0,1-1.28.09,3.74,3.74,0,0,1-.66-.09L18.52,178.19a4.29,4.29,0,0,1-3.28-3.91l.8-31.91.89-35.87v-.12A4.27,4.27,0,0,1,22.18,102l.89.21.2,0c6.82,1.66,41.85,10.11,51.07,11.61.75.12,1.33.2,1.71.22h.1a13.16,13.16,0,0,0,1.68-.1c9.83-1.09,47.77-10,53-11.23l.13,0a4.28,4.28,0,0,1,5.25,4.06l-1.77,35.54Zm-3-67.09c-.73-.21-1.81-.51-3.07-.84h0l-2.36.55-1.63.38-1.35.31-1.39.32-2,.46-1.77.41-1,.22-1.53.34-1.87.43-2.64.6-1.24.27-1.47.33-3.65.81-1.82.4-1.42.31-.92.19-1.29.28-1.79.38-.95.2-2,.43-2.2.46-1.6.32-1.54.31c-2.32.45-4.41.84-6.17,1.14l-1.12.18c-.36.07-.7.12-1,.16h0l-.6.08-.26,0h-.08a.76.76,0,0,1-.21,0l-.17,0a11.2,11.2,0,0,1-1.73.1,9,9,0,0,1-1-.12l-.43-.06-.28,0a.5.5,0,0,0,0,.12v.22l-.06,1.42c.75.12,1.33.2,1.71.22h.1a13.16,13.16,0,0,0,1.68-.1c9.83-1.09,47.77-10,53-11.23A1.78,1.78,0,0,1,130.06,102.75Z"/><path class="cls-4" d="M132.28,100.93a1.71,1.71,0,0,1-.06.63,1.73,1.73,0,0,1-1.27,1.21l-.13,0a1.78,1.78,0,0,1-.76,0c-.73-.21-1.81-.51-3.07-.84h0c-1.15-.3-2.43-.62-3.74-.92a39.27,39.27,0,0,0-7.3-1.19c-4.32,0-32.24,5.48-34.67,8l-.13.2-1.2,1.79-1.45-1.93a3.43,3.43,0,0,0-1-.69c-6.39-3.42-37.8-10.49-44.95-9.9a10.07,10.07,0,0,0-5.95,2.26A6.12,6.12,0,0,0,25.34,101l-.12.22a1.76,1.76,0,0,1-1.95,1.08l-.2,0-.12,0a1.76,1.76,0,0,1-1.07-2,1.52,1.52,0,0,1,.09-.28,6.41,6.41,0,0,1,.78-1.35c1.19-1.67,3.95-4.35,9.51-4.82s39.48,5.93,47.55,10.77c1.82-1.07,6.09-2.68,16.93-5,8-1.73,16.83-3.2,19.2-3.2,4,0,12.68,2.4,14.68,3l.41.11A1.73,1.73,0,0,1,132.28,100.93Z"/><path class="cls-4" d="M72.77,194h-.08A1.75,1.75,0,0,1,71,192.13l3.39-79.82a1.75,1.75,0,1,1,3.49.15l-3.38,79.82A1.75,1.75,0,0,1,72.77,194Z"/><path class="cls-4" d="M81.32,107.7l0,.08-.13.2-1.51,2.3-1.28,1.94-.47.72-.26.4a1.74,1.74,0,0,1-1.47.79,1.73,1.73,0,0,1-1-.28,1.78,1.78,0,0,1-.8-1.36v-.22a.49.49,0,0,1,0-.12.8.8,0,0,1,0-.15,0,0,0,0,1,0,0,1.43,1.43,0,0,1,.09-.27s0-.09.07-.14,0,0,0,0l0-.1.59-.9,2.22-3.37.9-1.37a1.75,1.75,0,0,1,2.92,1.92Z"/></g></g></svg>