<svg xmlns="http://www.w3.org/2000/svg" viewBox="0 0 176 193.96"><defs><style>.cls-1{fill:#fff;}.cls-2,.cls-3,.cls-5,.cls-6{fill:none;stroke-linecap:round;}.cls-2,.cls-5,.cls-6{stroke:#18315c;}.cls-2,.cls-3{stroke-miterlimit:4;stroke-width:3.5px;}.cls-3{stroke:#19325d;}.cls-4{fill:#18315c;}.cls-5{stroke-width:3.5px;}.cls-6{stroke-width:3.5px;}.cls-7{fill:#cbd3e0;}</style></defs><title>intern</title><g id="圖層_2" data-name="圖層 2"><g id="圖層_1-2" data-name="圖層 1"><g id="Group_134" data-name="Group 134"><circle id="Ellipse_5" data-name="Ellipse 5" class="cls-1" cx="88" cy="105.96" r="88"/><g id="Group_2" data-name="Group 2"><path id="Path_1" data-name="Path 1" class="cls-2" d="M18.7,153.7S-.81-4.1,98.49,1.92s54,156.28,54,156.28"/><path id="Path_2" data-name="Path 2" class="cls-2" d="M45.64,56.91s66.75,6,70.87-.18,5.65-18,5.65-18-1.88,12.59.25,17.51,17.34,6.87,17.34,6.87"/><path id="Path_3" data-name="Path 3" class="cls-3" d="M45.31,69.76s-14.49,24-2.59,41.56,60,19.92,78.34,9.05,16-43.21,12.77-50.18"/><g id="Ellipse_3" data-name="Ellipse 3"><ellipse class="cls-4" cx="60.71" cy="79.73" rx="7.1" ry="2.37" transform="translate(-6.71 5.59) rotate(-4.99)"/><ellipse class="cls-2" cx="60.71" cy="79.73" rx="5.35" ry="0.62" transform="translate(-6.71 5.59) rotate(-4.99)"/></g><g id="Ellipse_4" data-name="Ellipse 4"><ellipse class="cls-4" cx="94.32" cy="81.49" rx="2.65" ry="7.2" transform="translate(-3.68 158.53) rotate(-79)"/><ellipse class="cls-5" cx="94.32" cy="81.49" rx="0.9" ry="5.45" transform="translate(-3.68 158.53) rotate(-79)"/></g><path id="Path_5" data-name="Path 5" class="cls-6" d="M66.27,90.16c6.8,5.9,13.36,4,17.26-.5"/><path id="Path_7" data-name="Path 7" class="cls-3" d="M45.39,130.44c-1.27,1-3,6.76-2.43,7.64,1.29,2,8.72-3.61,8.72-3.61"/><path id="Path_8" data-name="Path 8" class="cls-2" d="M121.86,124.67c13.54,30.7,6.51,45.25,6.51,45.25"/><path id="Path_9" data-name="Path 9" class="cls-2" d="M49.94,168.26s7.19-31.47,11-38"/></g></g><path class="cls-7" d="M111,155c-2.19,13.43-4.83,24.84-4.83,24.84l-82-5.66S21,113,27.4,107.39s74.32-2.2,83.34,5.77C115.8,117.63,113.76,138,111,155Z"/><path class="cls-4" d="M111.65,111.87c-5.1-4.52-25.82-7.27-43.5-8.35-3.71-.22-36.41-2.06-41.66,2.56-6.62,5.87-4.36,57.86-3.84,68.23l.07,1.47,81.56,5.62,2.06.14.26-.09.76-.29.21-.86s.08-.38.23-1c.11-.48.25-1.12.42-1.9.27-1.26.62-2.89,1-4.8q.12-.57.24-1.17a2,2,0,0,0,.08-.4c.07-.28.12-.56.18-.85.09-.45.18-.92.27-1.39s.23-1.14.34-1.73c.24-1.25.49-2.55.74-3.9q.14-.75.27-1.53c.09-.52.19-1.05.28-1.58.19-1,.37-2.13.56-3.22.07-.48.15-1,.23-1.45l0-.19.27-1.63C116.5,129.49,116.15,115.85,111.65,111.87Zm-2.11,42.87c-.22,1.32-.43,2.63-.66,3.91-.19,1.1-.38,2.2-.58,3.26-.1.54-.2,1.07-.29,1.58l-.33,1.76c-.1.53-.2,1.05-.3,1.55l-.15.77c-.47,2.44-.92,4.6-1.3,6.4-.08.39-.16.75-.23,1.11s-.19.87-.27,1.26-.11.48-.16.7l-.24,1.11L25.5,172.67c-1.18-25-1.1-60.54,2.8-64,2.23-2,17.68-3.2,39.69-1.87,3.88.24,7.6.53,11.12.88,15.89,1.54,27.71,4.08,30.73,6.77,1.23,1.07,3.35,5.14,2.2,20.36C111.65,140.05,110.87,146.58,109.54,154.74Z"/><path class="cls-7" d="M106.15,179.88S108.79,168.47,111,155l33.18,2.56C152,163,106.15,179.88,106.15,179.88Z"/><path class="cls-4" d="M144.92,156.18l-.31-.21-31.9-2.45-1.48-.11-1.46-.12-.23,1.45c-.22,1.32-.43,2.63-.66,3.91-.19,1.1-.38,2.2-.58,3.26-.1.54-.2,1.07-.29,1.58l-.33,1.76c-.1.53-.2,1.05-.3,1.55l-.15.77c-.47,2.44-.92,4.6-1.3,6.4-.08.39-.16.75-.23,1.11s-.19.87-.27,1.26-.11.48-.16.7l-.24,1.11c-.18.82-.29,1.29-.29,1.31l-.08.31-.38,1.63,2.06.14.26-.09.76-.29c2.45-.92,10.5-4,18.53-7.62,20.1-9,20.46-12.6,20.62-14.11A3.42,3.42,0,0,0,144.92,156.18Zm-36.7,21.18c.27-1.26.62-2.89,1-4.8q.12-.57.24-1.17a2,2,0,0,0,.08-.4c.07-.28.12-.56.18-.85.09-.45.18-.92.27-1.39s.23-1.14.34-1.73c.24-1.25.49-2.55.74-3.9q.14-.75.27-1.53c.09-.52.19-1.05.28-1.58.19-1,.37-2.13.56-3.22l31.38,2.42C142.59,162.5,125.13,170.94,108.22,177.36Z"/></g></g></svg>